# xmcd
#
# Track frame offsets:
#	150
#	27385
#	47560
#	62860
#	89785
#	118660
#	131185
#	149335
#	174385
#	189685
#	209185
#	236485
#
# Disc length: 3624 seconds
#
# Revision: 2
# Processed by: cddbd v1.5.1PL0 Copyright (c) Steve Scherf et al.
# Submitted via: audiograbber 1.83.01
#
DISCID=bf0e260c
DTITLE=Various Piano Artist - Rockin' The Spirit (Piano Blues, Boogie and Spiritu
DTITLE=als)
DYEAR=2005
DGENRE=Blues
TTITLE0=Bob Seeley - St. Louis Blues
TTITLE1=Johnny O'Neal - Happy Days Are Here Again
TTITLE2=Mark Braun - Pinetop's Boogie Woogie
TTITLE3=Bob Seeley - Amazing Grace
TTITLE4=Mark Braun - My Sunday Best
TTITLE5=Eric Reed - You Took Advantage Of Me
TTITLE6=Johnny O'Neal - Glory Glory Hallelujah
TTITLE7=Monty Alexander - Boogie Woogie Keys
TTITLE8=Mark Braun and Bob Seeley - Fourplay Boogie Woogie
TTITLE9=Eric Reed - Three Hymns
TTITLE10=Monty Alexander - Nobody Knows The Trouble I've Seen - No Woman, No Cr
TTITLE10=y
TTITLE11=Johnny O'Neal and Eric Reed - Whisper Not
EXTD=Boogie-Woogie
EXTT0=
EXTT1=
EXTT2=
EXTT3=
EXTT4=
EXTT5=
EXTT6=
EXTT7=
EXTT8=
EXTT9=
EXTT10=
EXTT11=
PLAYORDER=
